<svg xmlns="http://www.w3.org/2000/svg" width="820" height="236" viewBox="0 0 820 236" role="img" aria-labelledby="title desc">
  <title id="title">Contribution activity graph for Janakiraman</title>
  <desc id="desc">A local animated contribution-style activity graph for the profile README.</desc>
  <defs>
    <linearGradient id="bg" x1="0" y1="0" x2="1" y2="1"><stop offset="0" stop-color="#170416"/><stop offset="1" stop-color="#14091e"/></linearGradient>
    <style><![CDATA[
      .dot { opacity:0; animation:dotIn .45s ease forwards; }
      .dot:hover { filter:brightness(1.6); }
      @keyframes dotIn { from{opacity:0; transform:translateY(8px)} to{opacity:1; transform:translateY(0)} }
    ]]></style>
  </defs>
  <rect width="820" height="236" rx="28" fill="url(#bg)"/>
  <rect x="1" y="1" width="818" height="234" rx="27" fill="none" stroke="#ff64bd" stroke-opacity=".45"/>
  <text x="42" y="44" fill="#fff0fb" font-size="25" font-family="Arial Black, Arial, sans-serif">Contribution Activity</text>
  <text x="778" y="45" text-anchor="end" fill="#d8a9e8" font-size="13" font-family="Consolas, Monaco, monospace">local animated graph</text>
  <rect class="dot" style="animation-delay:0.00s" x="42" y="76" width="13" height="13" rx="3" fill="#98267f"/><rect class="dot" style="animation-delay:0.01s" x="42" y="94" width="13" height="13" rx="3" fill="#98267f"/><rect class="dot" style="animation-delay:0.01s" x="42" y="112" width="13" height="13" rx="3" fill="#d946ef"/><rect class="dot" style="animation-delay:0.02s" x="42" y="130" width="13" height="13" rx="3" fill="#98267f"/><rect class="dot" style="animation-delay:0.02s" x="42" y="148" width="13" height="13" rx="3" fill="#5f1b65"/><rect class="dot" style="animation-delay:0.03s" x="42" y="166" width="13" height="13" rx="3" fill="#25132b"/><rect class="dot" style="animation-delay:0.04s" x="42" y="184" width="13" height="13" rx="3" fill="#25132b"/><rect class="dot" style="animation-delay:0.04s" x="60" y="76" width="13" height="13" rx="3" fill="#98267f"/><rect class="dot" style="animation-delay:0.05s" x="60" y="94" width="13" height="13" rx="3" fill="#14b8a6"/><rect class="dot" style="animation-delay:0.05s" x="60" y="112" width="13" height="13" rx="3" fill="#98267f"/><rect class="dot" style="animation-delay:0.06s" x="60" y="130" width="13" height="13" rx="3" fill="#5f1b65"/><rect class="dot" style="animation-delay:0.07s" x="60" y="148" width="13" height="13" rx="3" fill="#5f1b65"/><rect class="dot" style="animation-delay:0.07s" x="60" y="166" width="13" height="13" rx="3" fill="#5f1b65"/><rect class="dot" style="animation-delay:0.08s" x="60" y="184" width="13" height="13" rx="3" fill="#5f1b65"/><rect class="dot" style="animation-delay:0.08s" x="78" y="76" width="13" height="13" rx="3" fill="#d946ef"/><rect class="dot" style="animation-delay:0.09s" x="78" y="94" width="13" height="13" rx="3" fill="#98267f"/><rect class="dot" style="animation-delay:0.10s" x="78" y="112" width="13" height="13" rx="3" fill="#98267f"/><rect class="dot" style="animation-delay:0.10s" x="78" y="130" width="13" height="13" rx="3" fill="#25132b"/><rect class="dot" style="animation-delay:0.11s" x="78" y="148" width="13" height="13" rx="3" fill="#25132b"/><rect class="dot" style="animation-delay:0.11s" x="78" y="166" width="13" height="13" rx="3" fill="#5f1b65"/><rect class="dot" style="animation-delay:0.12s" x="78" y="184" width="13" height="13" rx="3" fill="#98267f"/><rect class="dot" style="animation-delay:0.13s" x="96" y="76" width="13" height="13" rx="3" fill="#14b8a6"/><rect class="dot" style="animation-delay:0.13s" x="96" y="94" width="13" height="13" rx="3" fill="#98267f"/><rect class="dot" style="animation-delay:0.14s" x="96" y="112" width="13" height="13" rx="3" fill="#25132b"/><rect class="dot" style="animation-delay:0.14s" x="96" y="130" width="13" height="13" rx="3" fill="#25132b"/><rect class="dot" style="animation-delay:0.15s" x="96" y="148" width="13" height="13" rx="3" fill="#5f1b65"/><rect class="dot" style="animation-delay:0.16s" x="96" y="166" width="13" height="13" rx="3" fill="#d946ef"/><rect class="dot" style="animation-delay:0.16s" x="96" y="184" width="13" height="13" rx="3" fill="#14b8a6"/><rect class="dot" style="animation-delay:0.17s" x="114" y="76" width="13" height="13" rx="3" fill="#d946ef"/><rect class="dot" style="animation-delay:0.17s" x="114" y="94" width="13" height="13" rx="3" fill="#5f1b65"/><rect class="dot" style="animation-delay:0.18s" x="114" y="112" width="13" height="13" rx="3" fill="#25132b"/><rect class="dot" style="animation-delay:0.19s" x="114" y="130" width="13" height="13" rx="3" fill="#25132b"/><rect class="dot" style="animation-delay:0.19s" x="114" y="148" width="13" height="13" rx="3" fill="#98267f"/><rect class="dot" style="animation-delay:0.20s" x="114" y="166" width="13" height="13" rx="3" fill="#d946ef"/><rect class="dot" style="animation-delay:0.20s" x="114" y="184" width="13" height="13" rx="3" fill="#14b8a6"/><rect class="dot" style="animation-delay:0.21s" x="132" y="76" width="13" height="13" rx="3" fill="#98267f"/><rect class="dot" style="animation-delay:0.22s" x="132" y="94" width="13" height="13" rx="3" fill="#5f1b65"/><rect class="dot" style="animation-delay:0.22s" x="132" y="112" width="13" height="13" rx="3" fill="#5f1b65"/><rect class="dot" style="animation-delay:0.23s" x="132" y="130" width="13" height="13" rx="3" fill="#25132b"/><rect class="dot" style="animation-delay:0.23s" x="132" y="148" width="13" height="13" rx="3" fill="#98267f"/><rect class="dot" style="animation-delay:0.24s" x="132" y="166" width="13" height="13" rx="3" fill="#98267f"/><rect class="dot" style="animation-delay:0.25s" x="132" y="184" width="13" height="13" rx="3" fill="#d946ef"/><rect class="dot" style="animation-delay:0.25s" x="150" y="76" width="13" height="13" rx="3" fill="#5f1b65"/><rect class="dot" style="animation-delay:0.26s" x="150" y="94" width="13" height="13" rx="3" fill="#25132b"/><rect class="dot" style="animation-delay:0.26s" x="150" y="112" width="13" height="13" rx="3" fill="#25132b"/><rect class="dot" style="animation-delay:0.27s" x="150" y="130" width="13" height="13" rx="3" fill="#5f1b65"/><rect class="dot" style="animation-delay:0.28s" x="150" y="148" width="13" height="13" rx="3" fill="#d946ef"/><rect class="dot" style="animation-delay:0.28s" x="150" y="166" width="13" height="13" rx="3" fill="#98267f"/><rect class="dot" style="animation-delay:0.29s" x="150" y="184" width="13" height="13" rx="3" fill="#98267f"/><rect class="dot" style="animation-delay:0.29s" x="168" y="76" width="13" height="13" rx="3" fill="#25132b"/><rect class="dot" style="animation-delay:0.30s" x="168" y="94" width="13" height="13" rx="3" fill="#25132b"/><rect class="dot" style="animation-delay:0.31s" x="168" y="112" width="13" height="13" rx="3" fill="#98267f"/><rect class="dot" style="animation-delay:0.31s" x="168" y="130" width="13" height="13" rx="3" fill="#98267f"/><rect class="dot" style="animation-delay:0.32s" x="168" y="148" width="13" height="13" rx="3" fill="#d946ef"/><rect class="dot" style="animation-delay:0.32s" x="168" y="166" width="13" height="13" rx="3" fill="#d946ef"/><rect class="dot" style="animation-delay:0.33s" x="168" y="184" width="13" height="13" rx="3" fill="#5f1b65"/><rect class="dot" style="animation-delay:0.34s" x="186" y="76" width="13" height="13" rx="3" fill="#25132b"/><rect class="dot" style="animation-delay:0.34s" x="186" y="94" width="13" height="13" rx="3" fill="#98267f"/><rect class="dot" style="animation-delay:0.35s" x="186" y="112" width="13" height="13" rx="3" fill="#98267f"/><rect class="dot" style="animation-delay:0.35s" x="186" y="130" width="13" height="13" rx="3" fill="#98267f"/><rect class="dot" style="animation-delay:0.36s" x="186" y="148" width="13" height="13" rx="3" fill="#d946ef"/><rect class="dot" style="animation-delay:0.37s" x="186" y="166" width="13" height="13" rx="3" fill="#98267f"/><rect class="dot" style="animation-delay:0.37s" x="186" y="184" width="13" height="13" rx="3" fill="#5f1b65"/><rect class="dot" style="animation-delay:0.38s" x="204" y="76" width="13" height="13" rx="3" fill="#25132b"/><rect class="dot" style="animation-delay:0.38s" x="204" y="94" width="13" height="13" rx="3" fill="#98267f"/><rect class="dot" style="animation-delay:0.39s" x="204" y="112" width="13" height="13" rx="3" fill="#d946ef"/><rect class="dot" style="animation-delay:0.40s" x="204" y="130" width="13" height="13" rx="3" fill="#d946ef"/><rect class="dot" style="animation-delay:0.40s" x="204" y="148" width="13" height="13" rx="3" fill="#5f1b65"/><rect class="dot" style="animation-delay:0.41s" x="204" y="166" width="13" height="13" rx="3" fill="#25132b"/><rect class="dot" style="animation-delay:0.41s" x="204" y="184" width="13" height="13" rx="3" fill="#25132b"/><rect class="dot" style="animation-delay:0.42s" x="222" y="76" width="13" height="13" rx="3" fill="#5f1b65"/><rect class="dot" style="animation-delay:0.43s" x="222" y="94" width="13" height="13" rx="3" fill="#d946ef"/><rect class="dot" style="animation-delay:0.43s" x="222" y="112" width="13" height="13" rx="3" fill="#d946ef"/><rect class="dot" style="animation-delay:0.44s" x="222" y="130" width="13" height="13" rx="3" fill="#98267f"/><rect class="dot" style="animation-delay:0.44s" x="222" y="148" width="13" height="13" rx="3" fill="#5f1b65"/><rect class="dot" style="animation-delay:0.45s" x="222" y="166" width="13" height="13" rx="3" fill="#5f1b65"/><rect class="dot" style="animation-delay:0.46s" x="222" y="184" width="13" height="13" rx="3" fill="#25132b"/><rect class="dot" style="animation-delay:0.46s" x="240" y="76" width="13" height="13" rx="3" fill="#d946ef"/><rect class="dot" style="animation-delay:0.47s" x="240" y="94" width="13" height="13" rx="3" fill="#d946ef"/><rect class="dot" style="animation-delay:0.47s" x="240" y="112" width="13" height="13" rx="3" fill="#98267f"/><rect class="dot" style="animation-delay:0.48s" x="240" y="130" width="13" height="13" rx="3" fill="#98267f"/><rect class="dot" style="animation-delay:0.49s" x="240" y="148" width="13" height="13" rx="3" fill="#5f1b65"/><rect class="dot" style="animation-delay:0.49s" x="240" y="166" width="13" height="13" rx="3" fill="#25132b"/><rect class="dot" style="animation-delay:0.50s" x="240" y="184" width="13" height="13" rx="3" fill="#5f1b65"/><rect class="dot" style="animation-delay:0.50s" x="258" y="76" width="13" height="13" rx="3" fill="#98267f"/><rect class="dot" style="animation-delay:0.51s" x="258" y="94" width="13" height="13" rx="3" fill="#98267f"/><rect class="dot" style="animation-delay:0.52s" x="258" y="112" width="13" height="13" rx="3" fill="#98267f"/><rect class="dot" style="animation-delay:0.52s" x="258" y="130" width="13" height="13" rx="3" fill="#25132b"/><rect class="dot" style="animation-delay:0.53s" x="258" y="148" width="13" height="13" rx="3" fill="#25132b"/><rect class="dot" style="animation-delay:0.53s" x="258" y="166" width="13" height="13" rx="3" fill="#5f1b65"/><rect class="dot" style="animation-delay:0.54s" x="258" y="184" width="13" height="13" rx="3" fill="#98267f"/><rect class="dot" style="animation-delay:0.55s" x="276" y="76" width="13" height="13" rx="3" fill="#14b8a6"/><rect class="dot" style="animation-delay:0.55s" x="276" y="94" width="13" height="13" rx="3" fill="#98267f"/><rect class="dot" style="animation-delay:0.56s" x="276" y="112" width="13" height="13" rx="3" fill="#5f1b65"/><rect class="dot" style="animation-delay:0.56s" x="276" y="130" width="13" height="13" rx="3" fill="#25132b"/><rect class="dot" style="animation-delay:0.57s" x="276" y="148" width="13" height="13" rx="3" fill="#5f1b65"/><rect class="dot" style="animation-delay:0.58s" x="276" y="166" width="13" height="13" rx="3" fill="#5f1b65"/><rect class="dot" style="animation-delay:0.58s" x="276" y="184" width="13" height="13" rx="3" fill="#d946ef"/><rect class="dot" style="animation-delay:0.59s" x="294" y="76" width="13" height="13" rx="3" fill="#98267f"/><rect class="dot" style="animation-delay:0.59s" x="294" y="94" width="13" height="13" rx="3" fill="#5f1b65"/><rect class="dot" style="animation-delay:0.60s" x="294" y="112" width="13" height="13" rx="3" fill="#25132b"/><rect class="dot" style="animation-delay:0.61s" x="294" y="130" width="13" height="13" rx="3" fill="#5f1b65"/><rect class="dot" style="animation-delay:0.61s" x="294" y="148" width="13" height="13" rx="3" fill="#5f1b65"/><rect class="dot" style="animation-delay:0.62s" x="294" y="166" width="13" height="13" rx="3" fill="#d946ef"/><rect class="dot" style="animation-delay:0.62s" x="294" y="184" width="13" height="13" rx="3" fill="#d946ef"/><rect class="dot" style="animation-delay:0.63s" x="312" y="76" width="13" height="13" rx="3" fill="#98267f"/><rect class="dot" style="animation-delay:0.64s" x="312" y="94" width="13" height="13" rx="3" fill="#5f1b65"/><rect class="dot" style="animation-delay:0.64s" x="312" y="112" width="13" height="13" rx="3" fill="#25132b"/><rect class="dot" style="animation-delay:0.65s" x="312" y="130" width="13" height="13" rx="3" fill="#98267f"/><rect class="dot" style="animation-delay:0.65s" x="312" y="148" width="13" height="13" rx="3" fill="#98267f"/><rect class="dot" style="animation-delay:0.66s" x="312" y="166" width="13" height="13" rx="3" fill="#d946ef"/><rect class="dot" style="animation-delay:0.67s" x="312" y="184" width="13" height="13" rx="3" fill="#d946ef"/><rect class="dot" style="animation-delay:0.67s" x="330" y="76" width="13" height="13" rx="3" fill="#5f1b65"/><rect class="dot" style="animation-delay:0.68s" x="330" y="94" width="13" height="13" rx="3" fill="#25132b"/><rect class="dot" style="animation-delay:0.68s" x="330" y="112" width="13" height="13" rx="3" fill="#5f1b65"/><rect class="dot" style="animation-delay:0.69s" x="330" y="130" width="13" height="13" rx="3" fill="#98267f"/><rect class="dot" style="animation-delay:0.70s" x="330" y="148" width="13" height="13" rx="3" fill="#d946ef"/><rect class="dot" style="animation-delay:0.70s" x="330" y="166" width="13" height="13" rx="3" fill="#d946ef"/><rect class="dot" style="animation-delay:0.71s" x="330" y="184" width="13" height="13" rx="3" fill="#98267f"/><rect class="dot" style="animation-delay:0.71s" x="348" y="76" width="13" height="13" rx="3" fill="#25132b"/><rect class="dot" style="animation-delay:0.72s" x="348" y="94" width="13" height="13" rx="3" fill="#25132b"/><rect class="dot" style="animation-delay:0.73s" x="348" y="112" width="13" height="13" rx="3" fill="#98267f"/><rect class="dot" style="animation-delay:0.73s" x="348" y="130" width="13" height="13" rx="3" fill="#98267f"/><rect class="dot" style="animation-delay:0.74s" x="348" y="148" width="13" height="13" rx="3" fill="#d946ef"/><rect class="dot" style="animation-delay:0.74s" x="348" y="166" width="13" height="13" rx="3" fill="#98267f"/><rect class="dot" style="animation-delay:0.75s" x="348" y="184" width="13" height="13" rx="3" fill="#98267f"/><rect class="dot" style="animation-delay:0.76s" x="366" y="76" width="13" height="13" rx="3" fill="#25132b"/><rect class="dot" style="animation-delay:0.76s" x="366" y="94" width="13" height="13" rx="3" fill="#5f1b65"/><rect class="dot" style="animation-delay:0.77s" x="366" y="112" width="13" height="13" rx="3" fill="#98267f"/><rect class="dot" style="animation-delay:0.77s" x="366" y="130" width="13" height="13" rx="3" fill="#98267f"/><rect class="dot" style="animation-delay:0.78s" x="366" y="148" width="13" height="13" rx="3" fill="#d946ef"/><rect class="dot" style="animation-delay:0.79s" x="366" y="166" width="13" height="13" rx="3" fill="#5f1b65"/><rect class="dot" style="animation-delay:0.79s" x="366" y="184" width="13" height="13" rx="3" fill="#5f1b65"/><rect class="dot" style="animation-delay:0.80s" x="384" y="76" width="13" height="13" rx="3" fill="#5f1b65"/><rect class="dot" style="animation-delay:0.80s" x="384" y="94" width="13" height="13" rx="3" fill="#98267f"/><rect class="dot" style="animation-delay:0.81s" x="384" y="112" width="13" height="13" rx="3" fill="#d946ef"/><rect class="dot" style="animation-delay:0.82s" x="384" y="130" width="13" height="13" rx="3" fill="#d946ef"/><rect class="dot" style="animation-delay:0.82s" x="384" y="148" width="13" height="13" rx="3" fill="#98267f"/><rect class="dot" style="animation-delay:0.83s" x="384" y="166" width="13" height="13" rx="3" fill="#5f1b65"/><rect class="dot" style="animation-delay:0.83s" x="384" y="184" width="13" height="13" rx="3" fill="#25132b"/><rect class="dot" style="animation-delay:0.84s" x="402" y="76" width="13" height="13" rx="3" fill="#5f1b65"/><rect class="dot" style="animation-delay:0.85s" x="402" y="94" width="13" height="13" rx="3" fill="#98267f"/><rect class="dot" style="animation-delay:0.85s" x="402" y="112" width="13" height="13" rx="3" fill="#98267f"/><rect class="dot" style="animation-delay:0.86s" x="402" y="130" width="13" height="13" rx="3" fill="#98267f"/><rect class="dot" style="animation-delay:0.86s" x="402" y="148" width="13" height="13" rx="3" fill="#5f1b65"/><rect class="dot" style="animation-delay:0.87s" x="402" y="166" width="13" height="13" rx="3" fill="#25132b"/><rect class="dot" style="animation-delay:0.88s" x="402" y="184" width="13" height="13" rx="3" fill="#5f1b65"/><rect class="dot" style="animation-delay:0.88s" x="420" y="76" width="13" height="13" rx="3" fill="#98267f"/><rect class="dot" style="animation-delay:0.89s" x="420" y="94" width="13" height="13" rx="3" fill="#d946ef"/><rect class="dot" style="animation-delay:0.89s" x="420" y="112" width="13" height="13" rx="3" fill="#98267f"/><rect class="dot" style="animation-delay:0.90s" x="420" y="130" width="13" height="13" rx="3" fill="#5f1b65"/><rect class="dot" style="animation-delay:0.91s" x="420" y="148" width="13" height="13" rx="3" fill="#25132b"/><rect class="dot" style="animation-delay:0.91s" x="420" y="166" width="13" height="13" rx="3" fill="#5f1b65"/><rect class="dot" style="animation-delay:0.92s" x="420" y="184" width="13" height="13" rx="3" fill="#98267f"/><rect class="dot" style="animation-delay:0.92s" x="438" y="76" width="13" height="13" rx="3" fill="#d946ef"/><rect class="dot" style="animation-delay:0.93s" x="438" y="94" width="13" height="13" rx="3" fill="#98267f"/><rect class="dot" style="animation-delay:0.94s" x="438" y="112" width="13" height="13" rx="3" fill="#5f1b65"/><rect class="dot" style="animation-delay:0.94s" x="438" y="130" width="13" height="13" rx="3" fill="#25132b"/><rect class="dot" style="animation-delay:0.95s" x="438" y="148" width="13" height="13" rx="3" fill="#5f1b65"/><rect class="dot" style="animation-delay:0.95s" x="438" y="166" width="13" height="13" rx="3" fill="#5f1b65"/><rect class="dot" style="animation-delay:0.96s" x="438" y="184" width="13" height="13" rx="3" fill="#d946ef"/><rect class="dot" style="animation-delay:0.97s" x="456" y="76" width="13" height="13" rx="3" fill="#d946ef"/><rect class="dot" style="animation-delay:0.97s" x="456" y="94" width="13" height="13" rx="3" fill="#5f1b65"/><rect class="dot" style="animation-delay:0.98s" x="456" y="112" width="13" height="13" rx="3" fill="#25132b"/><rect class="dot" style="animation-delay:0.98s" x="456" y="130" width="13" height="13" rx="3" fill="#25132b"/><rect class="dot" style="animation-delay:0.99s" x="456" y="148" width="13" height="13" rx="3" fill="#5f1b65"/><rect class="dot" style="animation-delay:1.00s" x="456" y="166" width="13" height="13" rx="3" fill="#d946ef"/><rect class="dot" style="animation-delay:1.00s" x="456" y="184" width="13" height="13" rx="3" fill="#d946ef"/><rect class="dot" style="animation-delay:1.01s" x="474" y="76" width="13" height="13" rx="3" fill="#d946ef"/><rect class="dot" style="animation-delay:1.01s" x="474" y="94" width="13" height="13" rx="3" fill="#98267f"/><rect class="dot" style="animation-delay:1.02s" x="474" y="112" width="13" height="13" rx="3" fill="#5f1b65"/><rect class="dot" style="animation-delay:1.03s" x="474" y="130" width="13" height="13" rx="3" fill="#25132b"/><rect class="dot" style="animation-delay:1.03s" x="474" y="148" width="13" height="13" rx="3" fill="#98267f"/><rect class="dot" style="animation-delay:1.04s" x="474" y="166" width="13" height="13" rx="3" fill="#d946ef"/><rect class="dot" style="animation-delay:1.04s" x="474" y="184" width="13" height="13" rx="3" fill="#98267f"/><rect class="dot" style="animation-delay:1.05s" x="492" y="76" width="13" height="13" rx="3" fill="#98267f"/><rect class="dot" style="animation-delay:1.06s" x="492" y="94" width="13" height="13" rx="3" fill="#25132b"/><rect class="dot" style="animation-delay:1.06s" x="492" y="112" width="13" height="13" rx="3" fill="#25132b"/><rect class="dot" style="animation-delay:1.07s" x="492" y="130" width="13" height="13" rx="3" fill="#5f1b65"/><rect class="dot" style="animation-delay:1.07s" x="492" y="148" width="13" height="13" rx="3" fill="#98267f"/><rect class="dot" style="animation-delay:1.08s" x="492" y="166" width="13" height="13" rx="3" fill="#d946ef"/><rect class="dot" style="animation-delay:1.09s" x="492" y="184" width="13" height="13" rx="3" fill="#98267f"/><rect class="dot" style="animation-delay:1.09s" x="510" y="76" width="13" height="13" rx="3" fill="#5f1b65"/><rect class="dot" style="animation-delay:1.10s" x="510" y="94" width="13" height="13" rx="3" fill="#25132b"/><rect class="dot" style="animation-delay:1.10s" x="510" y="112" width="13" height="13" rx="3" fill="#5f1b65"/><rect class="dot" style="animation-delay:1.11s" x="510" y="130" width="13" height="13" rx="3" fill="#d946ef"/><rect class="dot" style="animation-delay:1.12s" x="510" y="148" width="13" height="13" rx="3" fill="#d946ef"/><rect class="dot" style="animation-delay:1.12s" x="510" y="166" width="13" height="13" rx="3" fill="#d946ef"/><rect class="dot" style="animation-delay:1.13s" x="510" y="184" width="13" height="13" rx="3" fill="#98267f"/><rect class="dot" style="animation-delay:1.13s" x="528" y="76" width="13" height="13" rx="3" fill="#5f1b65"/><rect class="dot" style="animation-delay:1.14s" x="528" y="94" width="13" height="13" rx="3" fill="#25132b"/><rect class="dot" style="animation-delay:1.15s" x="528" y="112" width="13" height="13" rx="3" fill="#5f1b65"/><rect class="dot" style="animation-delay:1.15s" x="528" y="130" width="13" height="13" rx="3" fill="#d946ef"/><rect class="dot" style="animation-delay:1.16s" x="528" y="148" width="13" height="13" rx="3" fill="#14b8a6"/><rect class="dot" style="animation-delay:1.16s" x="528" y="166" width="13" height="13" rx="3" fill="#d946ef"/><rect class="dot" style="animation-delay:1.17s" x="528" y="184" width="13" height="13" rx="3" fill="#5f1b65"/><rect class="dot" style="animation-delay:1.18s" x="546" y="76" width="13" height="13" rx="3" fill="#25132b"/><rect class="dot" style="animation-delay:1.18s" x="546" y="94" width="13" height="13" rx="3" fill="#98267f"/><rect class="dot" style="animation-delay:1.19s" x="546" y="112" width="13" height="13" rx="3" fill="#d946ef"/><rect class="dot" style="animation-delay:1.19s" x="546" y="130" width="13" height="13" rx="3" fill="#d946ef"/><rect class="dot" style="animation-delay:1.20s" x="546" y="148" width="13" height="13" rx="3" fill="#98267f"/><rect class="dot" style="animation-delay:1.21s" x="546" y="166" width="13" height="13" rx="3" fill="#98267f"/><rect class="dot" style="animation-delay:1.21s" x="546" y="184" width="13" height="13" rx="3" fill="#5f1b65"/><rect class="dot" style="animation-delay:1.22s" x="564" y="76" width="13" height="13" rx="3" fill="#5f1b65"/><rect class="dot" style="animation-delay:1.22s" x="564" y="94" width="13" height="13" rx="3" fill="#98267f"/><rect class="dot" style="animation-delay:1.23s" x="564" y="112" width="13" height="13" rx="3" fill="#d946ef"/><rect class="dot" style="animation-delay:1.24s" x="564" y="130" width="13" height="13" rx="3" fill="#98267f"/><rect class="dot" style="animation-delay:1.24s" x="564" y="148" width="13" height="13" rx="3" fill="#d946ef"/><rect class="dot" style="animation-delay:1.25s" x="564" y="166" width="13" height="13" rx="3" fill="#5f1b65"/><rect class="dot" style="animation-delay:1.25s" x="564" y="184" width="13" height="13" rx="3" fill="#25132b"/><rect class="dot" style="animation-delay:1.26s" x="582" y="76" width="13" height="13" rx="3" fill="#5f1b65"/><rect class="dot" style="animation-delay:1.27s" x="582" y="94" width="13" height="13" rx="3" fill="#d946ef"/><rect class="dot" style="animation-delay:1.27s" x="582" y="112" width="13" height="13" rx="3" fill="#d946ef"/><rect class="dot" style="animation-delay:1.28s" x="582" y="130" width="13" height="13" rx="3" fill="#98267f"/><rect class="dot" style="animation-delay:1.28s" x="582" y="148" width="13" height="13" rx="3" fill="#25132b"/><rect class="dot" style="animation-delay:1.29s" x="582" y="166" width="13" height="13" rx="3" fill="#5f1b65"/><rect class="dot" style="animation-delay:1.30s" x="582" y="184" width="13" height="13" rx="3" fill="#5f1b65"/><rect class="dot" style="animation-delay:1.30s" x="600" y="76" width="13" height="13" rx="3" fill="#98267f"/><rect class="dot" style="animation-delay:1.31s" x="600" y="94" width="13" height="13" rx="3" fill="#d946ef"/><rect class="dot" style="animation-delay:1.31s" x="600" y="112" width="13" height="13" rx="3" fill="#d946ef"/><rect class="dot" style="animation-delay:1.32s" x="600" y="130" width="13" height="13" rx="3" fill="#5f1b65"/><rect class="dot" style="animation-delay:1.33s" x="600" y="148" width="13" height="13" rx="3" fill="#5f1b65"/><rect class="dot" style="animation-delay:1.33s" x="600" y="166" width="13" height="13" rx="3" fill="#25132b"/><rect class="dot" style="animation-delay:1.34s" x="600" y="184" width="13" height="13" rx="3" fill="#5f1b65"/><rect class="dot" style="animation-delay:1.34s" x="618" y="76" width="13" height="13" rx="3" fill="#14b8a6"/><rect class="dot" style="animation-delay:1.35s" x="618" y="94" width="13" height="13" rx="3" fill="#d946ef"/><rect class="dot" style="animation-delay:1.36s" x="618" y="112" width="13" height="13" rx="3" fill="#5f1b65"/><rect class="dot" style="animation-delay:1.36s" x="618" y="130" width="13" height="13" rx="3" fill="#25132b"/><rect class="dot" style="animation-delay:1.37s" x="618" y="148" width="13" height="13" rx="3" fill="#5f1b65"/><rect class="dot" style="animation-delay:1.37s" x="618" y="166" width="13" height="13" rx="3" fill="#5f1b65"/><rect class="dot" style="animation-delay:1.38s" x="618" y="184" width="13" height="13" rx="3" fill="#d946ef"/><rect class="dot" style="animation-delay:1.39s" x="636" y="76" width="13" height="13" rx="3" fill="#14b8a6"/><rect class="dot" style="animation-delay:1.39s" x="636" y="94" width="13" height="13" rx="3" fill="#98267f"/><rect class="dot" style="animation-delay:1.40s" x="636" y="112" width="13" height="13" rx="3" fill="#5f1b65"/><rect class="dot" style="animation-delay:1.40s" x="636" y="130" width="13" height="13" rx="3" fill="#5f1b65"/><rect class="dot" style="animation-delay:1.41s" x="636" y="148" width="13" height="13" rx="3" fill="#25132b"/><rect class="dot" style="animation-delay:1.42s" x="636" y="166" width="13" height="13" rx="3" fill="#98267f"/><rect class="dot" style="animation-delay:1.42s" x="636" y="184" width="13" height="13" rx="3" fill="#14b8a6"/>
  <text x="42" y="212" fill="#d8a9e8" font-size="12" font-family="Consolas, Monaco, monospace">Less</text>
  <rect x="82" y="202" width="12" height="12" rx="3" fill="#25132b"/><rect x="100" y="202" width="12" height="12" rx="3" fill="#5f1b65"/><rect x="118" y="202" width="12" height="12" rx="3" fill="#98267f"/><rect x="136" y="202" width="12" height="12" rx="3" fill="#d946ef"/><rect x="154" y="202" width="12" height="12" rx="3" fill="#14b8a6"/>
  <text x="174" y="212" fill="#d8a9e8" font-size="12" font-family="Consolas, Monaco, monospace">More</text>
</svg>